HIERARCHY
ROOT mixamorig:Hips
{
	OFFSET 0.000000 201.639420 0.000000
	CHANNELS 6 Xposition Yposition Zposition Xrotation Yrotation Zrotation
	JOINT mixamorig:Spine
	{
		OFFSET 0.006200 19.524994 -2.481800
		CHANNELS 3 Xrotation Yrotation Zrotation
		JOINT mixamorig:Spine1
		{
			OFFSET -0.000900 22.835007 -2.825400
			CHANNELS 3 Xrotation Yrotation Zrotation
			JOINT mixamorig:Spine2
			{
				OFFSET -0.020600 26.552490 -3.193300
				CHANNELS 3 Xrotation Yrotation Zrotation
				JOINT mixamorig:Neck
				{
					OFFSET -0.060000 30.701813 1.352200
					CHANNELS 3 Xrotation Yrotation Zrotation
					JOINT mixamorig:Head
					{
						OFFSET -0.087200 22.547607 3.670900
						CHANNELS 3 Xrotation Yrotation Zrotation
						JOINT mixamorig:HeadTop_End
						{
							OFFSET -0.830600 40.355194 7.893500
							CHANNELS 3 Xrotation Yrotation Zrotation
							End Site
							{
								OFFSET 0.000000 30.592346 0.000000
							}
						}
						JOINT mixamorig:RightEye
						{
							OFFSET -6.302100 18.118591 16.197100
							CHANNELS 3 Xrotation Yrotation Zrotation
							End Site
							{
								OFFSET 0.000000 30.592346 0.000000
							}
						}
						JOINT mixamorig:LeftEye
						{
							OFFSET 6.741500 18.382690 16.401899
							CHANNELS 3 Xrotation Yrotation Zrotation
							End Site
							{
								OFFSET 0.000000 30.592346 0.000000
							}
						}
					}
				}
				JOINT mixamorig:LeftShoulder
				{
					OFFSET 11.924900 18.230499 1.425400
					CHANNELS 3 Xrotation Yrotation Zrotation
					JOINT mixamorig:LeftArm
					{
						OFFSET 25.435989 -0.697632 -5.229300
						CHANNELS 3 Xrotation Yrotation Zrotation
						JOINT mixamorig:LeftForeArm
						{
							OFFSET 54.684776 0.000000 0.000000
							CHANNELS 3 Xrotation Yrotation Zrotation
							JOINT mixamorig:LeftHand
							{
								OFFSET 55.098175 0.000000 0.000000
								CHANNELS 3 Xrotation Yrotation Zrotation
								JOINT mixamorig:LeftHandMiddle1
								{
									OFFSET 23.369751 0.000000 0.000000
									CHANNELS 3 Xrotation Yrotation Zrotation
									JOINT mixamorig:LeftHandMiddle2
									{
										OFFSET 6.378677 0.000000 0.000000
										CHANNELS 3 Xrotation Yrotation Zrotation
										JOINT mixamorig:LeftHandMiddle3
										{
											OFFSET 6.148331 0.000000 0.000000
											CHANNELS 3 Xrotation Yrotation Zrotation
											JOINT mixamorig:LeftHandMiddle4
											{
												OFFSET 6.582504 0.000000 0.000000
												CHANNELS 3 Xrotation Yrotation Zrotation
												End Site
												{
													OFFSET -1.168900 6.395691 1.028606
												}
											}
										}
									}
								}
								JOINT mixamorig:LeftHandThumb1
								{
									OFFSET 7.235672 -3.848206 5.434273
									CHANNELS 3 Xrotation Yrotation Zrotation
									JOINT mixamorig:LeftHandThumb2
									{
										OFFSET 6.568451 -3.792297 3.792300
										CHANNELS 3 Xrotation Yrotation Zrotation
										JOINT mixamorig:LeftHandThumb3
										{
											OFFSET 6.063080 -3.500519 3.500518
											CHANNELS 3 Xrotation Yrotation Zrotation
											JOINT mixamorig:LeftHandThumb4
											{
												OFFSET 4.793182 -2.767334 2.767349
												CHANNELS 3 Xrotation Yrotation Zrotation
												End Site
												{
													OFFSET 0.101639 6.054260 1.275483
												}
											}
										}
									}
								}
								JOINT mixamorig:LeftHandIndex1
								{
									OFFSET 23.101074 -0.309540 4.992809
									CHANNELS 3 Xrotation Yrotation Zrotation
									JOINT mixamorig:LeftHandIndex2
									{
										OFFSET 6.226883 0.000000 0.000000
										CHANNELS 3 Xrotation Yrotation Zrotation
										JOINT mixamorig:LeftHandIndex3
										{
											OFFSET 6.094330 0.000000 0.000000
											CHANNELS 3 Xrotation Yrotation Zrotation
											JOINT mixamorig:LeftHandIndex4
											{
												OFFSET 5.482605 0.000000 0.000000
												CHANNELS 3 Xrotation Yrotation Zrotation
												End Site
												{
													OFFSET -1.427902 5.233032 0.797164
												}
											}
										}
									}
								}
								JOINT mixamorig:LeftHandRing1
								{
									OFFSET 22.299240 0.021149 -3.964172
									CHANNELS 3 Xrotation Yrotation Zrotation
									JOINT mixamorig:LeftHandRing2
									{
										OFFSET 6.321869 0.000000 0.000000
										CHANNELS 3 Xrotation Yrotation Zrotation
										JOINT mixamorig:LeftHandRing3
										{
											OFFSET 5.899796 0.000000 0.000000
											CHANNELS 3 Xrotation Yrotation Zrotation
											JOINT mixamorig:LeftHandRing4
											{
												OFFSET 6.517899 0.000000 0.000000
												CHANNELS 3 Xrotation Yrotation Zrotation
												End Site
												{
													OFFSET -1.637299 6.232208 0.980890
												}
											}
										}
									}
								}
								JOINT mixamorig:LeftHandPinky1
								{
									OFFSET 20.463791 -0.302338 -8.562233
									CHANNELS 3 Xrotation Yrotation Zrotation
									JOINT mixamorig:LeftHandPinky2
									{
										OFFSET 6.908646 0.000000 0.000000
										CHANNELS 3 Xrotation Yrotation Zrotation
										JOINT mixamorig:LeftHandPinky3
										{
											OFFSET 4.622849 0.000000 0.000000
											CHANNELS 3 Xrotation Yrotation Zrotation
											JOINT mixamorig:LeftHandPinky4
											{
												OFFSET 5.216080 0.000000 0.000000
												CHANNELS 3 Xrotation Yrotation Zrotation
												End Site
												{
													OFFSET -0.606308 5.116241 0.814926
												}
											}
										}
									}
								}
							}
						}
					}
				}
				JOINT mixamorig:RightShoulder
				{
					OFFSET -12.001300 18.284088 1.348900
					CHANNELS 3 Xrotation Yrotation Zrotation
					JOINT mixamorig:RightArm
					{
						OFFSET -25.308500 -0.751312 -5.164599
						CHANNELS 3 Xrotation Yrotation Zrotation
						JOINT mixamorig:RightForeArm
						{
							OFFSET -54.684429 0.000000 0.000000
							CHANNELS 3 Xrotation Yrotation Zrotation
							JOINT mixamorig:RightHand
							{
								OFFSET -55.150291 0.000000 0.000000
								CHANNELS 3 Xrotation Yrotation Zrotation
								JOINT mixamorig:RightHandMiddle1
								{
									OFFSET -23.317566 0.000000 0.000000
									CHANNELS 3 Xrotation Yrotation Zrotation
									JOINT mixamorig:RightHandMiddle2
									{
										OFFSET -6.378403 0.000000 0.000000
										CHANNELS 3 Xrotation Yrotation Zrotation
										JOINT mixamorig:RightHandMiddle3
										{
											OFFSET -6.148193 0.000000 0.000000
											CHANNELS 3 Xrotation Yrotation Zrotation
											JOINT mixamorig:RightHandMiddle4
											{
												OFFSET -6.583389 0.000000 0.000000
												CHANNELS 3 Xrotation Yrotation Zrotation
												End Site
												{
													OFFSET 1.171692 6.395905 1.029786
												}
											}
										}
									}
								}
								JOINT mixamorig:RightHandThumb1
								{
									OFFSET -7.190521 -3.860474 5.435846
									CHANNELS 3 Xrotation Yrotation Zrotation
									JOINT mixamorig:RightHandThumb2
									{
										OFFSET -6.567429 -3.791718 3.791708
										CHANNELS 3 Xrotation Yrotation Zrotation
										JOINT mixamorig:RightHandThumb3
										{
											OFFSET -6.062469 -3.500153 3.500166
											CHANNELS 3 Xrotation Yrotation Zrotation
											JOINT mixamorig:RightHandThumb4
											{
												OFFSET -4.792618 -2.767029 2.767022
												CHANNELS 3 Xrotation Yrotation Zrotation
												End Site
												{
													OFFSET -0.100327 6.053253 1.276754
												}
											}
										}
									}
								}
								JOINT mixamorig:RightHandIndex1
								{
									OFFSET -23.048981 -0.310791 4.992554
									CHANNELS 3 Xrotation Yrotation Zrotation
									JOINT mixamorig:RightHandIndex2
									{
										OFFSET -6.227539 0.000000 0.000000
										CHANNELS 3 Xrotation Yrotation Zrotation
										JOINT mixamorig:RightHandIndex3
										{
											OFFSET -6.095047 0.000000 0.000000
											CHANNELS 3 Xrotation Yrotation Zrotation
											JOINT mixamorig:RightHandIndex4
											{
												OFFSET -5.484772 0.000000 0.000000
												CHANNELS 3 Xrotation Yrotation Zrotation
												End Site
												{
													OFFSET 1.420593 5.237305 0.797056
												}
											}
										}
									}
								}
								JOINT mixamorig:RightHandRing1
								{
									OFFSET -22.246323 0.020569 -3.963762
									CHANNELS 3 Xrotation Yrotation Zrotation
									JOINT mixamorig:RightHandRing2
									{
										OFFSET -6.322128 0.000000 0.000000
										CHANNELS 3 Xrotation Yrotation Zrotation
										JOINT mixamorig:RightHandRing3
										{
											OFFSET -5.900024 0.000000 0.000000
											CHANNELS 3 Xrotation Yrotation Zrotation
											JOINT mixamorig:RightHandRing4
											{
												OFFSET -6.518356 0.000000 0.000000
												CHANNELS 3 Xrotation Yrotation Zrotation
												End Site
												{
													OFFSET 1.636398 6.232697 0.982186
												}
											}
										}
									}
								}
								JOINT mixamorig:RightHandPinky1
								{
									OFFSET -20.411011 -0.303314 -8.561701
									CHANNELS 3 Xrotation Yrotation Zrotation
									JOINT mixamorig:RightHandPinky2
									{
										OFFSET -6.907349 0.000000 0.000000
										CHANNELS 3 Xrotation Yrotation Zrotation
										JOINT mixamorig:RightHandPinky3
										{
											OFFSET -4.623840 0.000000 0.000000
											CHANNELS 3 Xrotation Yrotation Zrotation
											JOINT mixamorig:RightHandPinky4
											{
												OFFSET -5.218353 0.000000 0.000000
												CHANNELS 3 Xrotation Yrotation Zrotation
												End Site
												{
													OFFSET 0.602097 5.118835 0.816273
												}
											}
										}
									}
								}
							}
						}
					}
				}
			}
		}
	}
	JOINT mixamorig:LeftUpLeg
	{
		OFFSET 18.168400 -13.561905 -0.039000
		CHANNELS 3 Xrotation Yrotation Zrotation
		JOINT mixamorig:LeftLeg
		{
			OFFSET 0.577358 -80.825211 -3.695000
			CHANNELS 3 Xrotation Yrotation Zrotation
			JOINT mixamorig:LeftFoot
			{
				OFFSET -0.577356 -83.370262 -6.520700
				CHANNELS 3 Xrotation Yrotation Zrotation
				JOINT mixamorig:LeftToeBase
				{
					OFFSET 0.750401 -20.798306 25.135401
					CHANNELS 3 Xrotation Yrotation Zrotation
					JOINT mixamorig:LeftToe_End
					{
						OFFSET -0.000500 0.001200 19.917799
						CHANNELS 3 Xrotation Yrotation Zrotation
						End Site
						{
							OFFSET 0.000000 19.917805 0.000000
						}
					}
				}
			}
		}
	}
	JOINT mixamorig:RightUpLeg
	{
		OFFSET -18.162500 -13.585098 -0.041000
		CHANNELS 3 Xrotation Yrotation Zrotation
		JOINT mixamorig:RightLeg
		{
			OFFSET -0.595024 -80.945297 -3.631900
			CHANNELS 3 Xrotation Yrotation Zrotation
			JOINT mixamorig:RightFoot
			{
				OFFSET 0.595024 -83.218193 -6.561200
				CHANNELS 3 Xrotation Yrotation Zrotation
				JOINT mixamorig:RightToeBase
				{
					OFFSET -0.753601 -20.807106 25.115000
					CHANNELS 3 Xrotation Yrotation Zrotation
					JOINT mixamorig:RightToe_End
					{
						OFFSET 0.000299 0.001700 19.918200
						CHANNELS 3 Xrotation Yrotation Zrotation
						End Site
						{
							OFFSET 0.000000 19.918203 0.000000
						}
					}
				}
			}
		}
	}
}
MOTION
Frames: 4
Frame Time: 0.033333
20.317314 178.841553 -294.988800 146.102678 -104.395405 149.825937 22.557227 -7.874008 3.307957 -1.063835 -0.995906 -1.889550 -1.093189 -1.069295 -1.832464 0.391974 10.786725 3.270965 -10.002615 57.980192 1.804584 -0.000000 -0.000000 -0.000000 -0.000000 -0.000000 -0.000000 -0.000000 -0.000000 -0.000000 0.766268 -6.035806 -1.824982 25.665879 -36.673826 -42.122931 0.000015 -110.460114 0.000011 1.974125 1.315982 23.907330 0.270157 1.917347 -15.064300 0.215223 1.711322 -14.333891 0.191847 1.617279 -13.530384 0.000002 0.000001 -0.000000 -1.627201 3.611699 6.002119 3.939036 7.948717 0.746814 -0.603588 1.509839 2.522044 0.000000 -0.000001 -0.000001 0.173542 1.548765 -14.383024 0.216071 1.714767 -14.363358 0.216094 1.714766 -14.363369 -0.000002 -0.000002 -0.000002 0.170210 1.529222 -13.787354 0.235368 1.788350 -14.994239 0.227935 1.760357 -14.754068 0.000002 0.000001 0.000001 1.475068 5.905148 -16.554189 0.211957 -2.346750 -14.812901 0.149784 1.431168 -11.947976 0.000000 0.000000 0.000004 2.096958 18.270355 -1.775898 27.122543 -4.206332 67.764233 0.000025 120.433789 -0.000015 -0.136808 18.896215 -12.808833 0.403234 -2.344065 18.191627 0.323071 -2.098720 17.499834 3.224267 -1.124187 16.774823 0.000000 0.000000 -0.000003 -1.909490 -3.516507 -6.544486 4.637218 -8.634131 -0.225402 -1.288853 0.177688 -2.083729 -0.000001 0.000000 -0.000000 0.290100 -1.994405 17.523620 0.323460 -2.100032 17.511236 0.323504 -2.100036 17.511234 0.000002 -0.000000 0.000003 0.316190 -2.082016 16.138359 0.381268 -2.274994 19.025294 -2.332128 -3.089204 18.252615 0.000000 -0.000001 0.000004 0.290108 -1.994402 17.523626 0.323464 -2.100038 17.511232 0.323484 -2.100024 17.511242 -0.000003 0.000000 0.000001 -26.453977 4.844962 16.144942 41.015771 -8.382210 8.594027 -7.610584 0.025606 -20.946184 -0.002497 0.000003 0.000001 0.000000 0.000002 0.000000 -23.018158 -9.482966 -27.597367 62.334540 6.750139 -10.041573 -11.155009 12.562461 23.459743 -17.973393 1.023535 -5.606495 0.000001 -0.000000 -0.000000 
19.639147 182.420029 -298.159882 159.462582 -109.952693 163.939047 19.436821 -7.899653 3.847351 -0.635878 -1.005644 -2.253810 -0.672643 -1.081637 -2.208131 0.931961 10.799689 3.407321 -7.554345 58.372818 0.634182 0.000000 -0.000000 0.000001 0.000000 -0.000000 0.000001 0.000000 -0.000000 0.000001 0.785958 -6.682447 -2.702652 27.130780 -45.065329 -32.506609 -0.000167 -106.748268 -0.000178 -0.836454 1.245170 22.952478 0.279572 1.952122 -15.073877 0.215189 1.711318 -14.333886 0.192071 1.618059 -13.536992 -0.000003 0.000002 0.000001 -1.603771 3.636406 5.986200 3.939052 7.948715 0.746806 -0.599526 1.520854 2.524870 -0.000001 -0.000001 -0.000001 0.182327 1.583082 -14.385323 0.216274 1.715490 -14.369668 0.216280 1.715504 -14.369673 0.000002 0.000000 0.000000 0.178892 1.564721 -13.789633 0.235580 1.789083 -15.000678 0.228132 1.761109 -14.760488 -0.000002 0.000000 -0.000002 1.486967 5.940988 -16.566743 0.211962 -2.346752 -14.812901 0.149937 1.431945 -11.954553 0.000000 -0.000001 0.000001 2.174592 18.232128 -2.392600 34.846922 -12.686989 70.168186 -0.000017 123.001352 0.000015 -0.996217 21.422122 -11.325919 0.398566 -2.329914 18.187447 0.323070 -2.098734 17.499846 3.224220 -1.123993 16.771931 0.000001 -0.000001 -0.000002 -1.904019 -3.504204 -6.551858 4.637207 -8.634131 -0.225403 -1.290118 0.181066 -2.082803 -0.000003 -0.000000 -0.000001 0.285717 -1.980488 17.522345 0.323382 -2.099704 17.508377 0.323368 -2.099694 17.508375 -0.000000 -0.000001 -0.000002 0.312084 -2.067884 16.137172 0.381172 -2.274675 19.022422 -2.332289 -3.088740 18.249803 0.000001 -0.000001 -0.000001 0.285712 -1.980483 17.522345 0.323389 -2.099709 17.508374 0.323363 -2.099691 17.508377 -0.000001 0.000002 0.000001 -25.652934 5.372763 14.025077 34.712848 -7.925096 7.480835 -2.509562 1.321397 -19.378731 -0.001377 -0.000000 0.000005 -0.000000 0.000000 -0.000000 -18.777706 -13.689360 -28.081973 58.350286 7.217259 -5.605437 -10.534687 8.224155 20.545703 -19.706732 0.957811 -5.135201 -0.000000 -0.000000 0.000000 
18.773951 183.651718 -301.053436 163.194024 -115.367031 168.752910 17.854232 -5.998169 3.903705 -0.743563 -0.723453 -2.781080 -0.778012 -0.809425 -2.748520 1.625440 10.827807 3.708650 -5.851200 58.897957 0.480667 0.000000 0.000000 -0.000000 0.000000 0.000000 -0.000000 0.000000 0.000000 -0.000000 0.834178 -7.641403 -2.990626 27.548296 -51.844606 -26.817346 0.000053 -104.165788 0.000071 -1.531234 1.858200 20.293537 0.282600 1.963326 -15.076126 0.215301 1.711635 -14.336495 0.192113 1.618398 -13.539972 -0.000004 0.000003 0.000002 -1.584158 3.643754 5.978287 3.939055 7.948710 0.746802 -0.597815 1.525428 2.526035 0.000001 -0.000001 0.000002 0.185175 1.594302 -14.386923 0.216377 1.715850 -14.372581 0.216375 1.715833 -14.372603 -0.000001 -0.000001 -0.000001 0.181719 1.576254 -13.791323 0.235657 1.789457 -15.003672 0.228241 1.761456 -14.763541 -0.000001 -0.000001 -0.000001 1.491107 5.952984 -16.572809 0.211973 -2.346755 -14.812896 0.149996 1.432254 -11.957233 -0.000001 -0.000000 -0.000001 2.117680 17.853353 -2.272320 43.855641 -19.872227 72.217141 0.000045 125.326882 -0.000043 -4.453788 23.601415 -9.673169 0.394620 -2.317936 18.190815 0.323064 -2.098741 17.499855 3.224235 -1.124061 16.772914 0.000001 -0.000001 -0.000001 -1.901816 -3.495624 -6.547847 4.637187 -8.634125 -0.225409 -1.291589 0.184927 -2.081726 -0.000002 0.000000 0.000001 0.281879 -1.968342 17.524773 0.323407 -2.099817 17.509366 0.323419 -2.099823 17.509335 0.000003 -0.000000 -0.000002 0.308537 -2.055647 16.139624 0.381228 -2.274785 19.023417 -2.332235 -3.088910 18.250791 -0.000001 0.000001 0.000000 0.281885 -1.968340 17.524770 0.323412 -2.099825 17.509366 0.323409 -2.099820 17.509349 0.000001 -0.000001 0.000002 -24.866772 5.741612 12.568241 34.582552 -5.362090 6.153510 -2.404086 1.232056 -17.483613 -0.001786 0.000002 -0.000003 -0.000000 0.000002 0.000000 -12.943839 -17.337025 -26.661812 53.729024 7.919877 -1.654106 -11.918046 -2.174668 14.940484 -22.283378 0.078031 -0.401780 -0.000000 -0.000000 0.000000 
18.189692 182.170609 -303.764709 162.857624 -118.322154 169.192569 17.835762 -2.850753 3.889839 -1.320541 -0.251316 -3.374593 -1.340183 -0.352778 -3.358944 2.210730 10.912146 3.890536 -5.555287 59.371208 1.695012 -0.000000 0.000000 0.000000 -0.000000 0.000000 0.000000 -0.000000 0.000000 0.000000 0.917504 -8.407066 -2.113936 22.955830 -54.266007 -31.120633 0.000056 -103.897764 0.000075 0.848241 2.745428 15.277796 0.278428 1.947894 -15.078052 0.215272 1.711644 -14.336675 0.192152 1.618431 -13.540141 0.000003 0.000002 0.000001 -1.574662 3.632233 5.975905 3.939036 7.948709 0.746810 -0.599178 1.521720 2.525084 0.000006 -0.000001 0.000001 0.181211 1.578783 -14.389088 0.216368 1.715882 -14.372926 0.216371 1.715876 -14.372936 -0.000003 -0.000002 0.000002 0.177738 1.560113 -13.793724 0.235677 1.789498 -15.004122 0.228228 1.761521 -14.763946 -0.000002 0.000003 0.000002 1.486284 5.937025 -16.574122 0.211973 -2.346759 -14.812915 0.150002 1.432219 -11.956910 -0.000001 -0.000001 -0.000002 2.008820 16.966825 -2.163633 50.010205 -23.550538 71.042095 0.000016 126.843689 0.000005 -9.356793 24.403900 -8.275736 0.394708 -2.318061 18.201551 0.323049 -2.098721 17.499855 3.224345 -1.124408 16.778269 -0.000001 -0.000002 -0.000001 -1.908756 -3.498856 -6.531995 4.637227 -8.634132 -0.225410 -1.292254 0.186709 -2.081231 -0.000003 -0.000000 -0.000002 0.281734 -1.967929 17.530198 0.323587 -2.100429 17.514675 0.323590 -2.100447 17.514640 -0.000000 0.000000 -0.000001 0.308498 -2.055443 16.144906 0.381412 -2.275384 19.028683 -2.331934 -3.089769 18.255994 0.000001 0.000002 -0.000002 0.281714 -1.967924 17.530217 0.323609 -2.100447 17.514647 0.323593 -2.100438 17.514649 -0.000003 0.000001 0.000001 -24.800883 5.898637 12.462056 39.937554 -4.582775 5.758567 -6.572044 1.942137 -16.737889 -0.001658 0.000003 0.000001 -0.000000 0.000003 0.000000 -7.606241 -18.461137 -23.788750 51.878675 -3.551190 0.330995 -21.526895 -2.881108 11.673917 -15.916436 0.000014 -0.000001 -0.000000 0.000000 0.000000 
